<svg width="121" height="32" viewBox="0 0 121 32" fill="none" xmlns="http://www.w3.org/2000/svg">
<path d="M19.2357 5.23872H12.002V24.9123H7.13634V5.23872H0V1.29752H19.2357V5.23872Z" fill="#F5F9FC"/>
<path d="M30.5079 11.7587C29.8699 11.6722 29.3077 11.629 28.8211 11.629C27.0478 11.629 25.8855 12.2291 25.334 13.4293V24.9123H20.6467V7.36341H25.0745L25.2043 9.45565C26.145 7.84457 27.4479 7.03903 29.113 7.03903C29.632 7.03903 30.1186 7.10931 30.5727 7.24987L30.5079 11.7587Z" fill="#F5F9FC"/>
<path d="M42.4612 24.9123C42.245 24.4906 42.0882 23.9662 41.9909 23.3391C40.8556 24.6042 39.3796 25.2367 37.5631 25.2367C35.8439 25.2367 34.4166 24.7393 33.2813 23.7446C32.1568 22.7498 31.5945 21.4955 31.5945 19.9818C31.5945 18.122 32.2811 16.6947 33.6543 15.6999C35.0384 14.7052 37.0333 14.2024 39.6391 14.1916H41.7963V13.186C41.7963 12.3751 41.5854 11.7263 41.1637 11.2397C40.7528 10.7532 40.0987 10.5099 39.2012 10.5099C38.4119 10.5099 37.7902 10.6991 37.336 11.0775C36.8927 11.456 36.6711 11.975 36.6711 12.6346H31.9838C31.9838 11.6182 32.2973 10.6775 32.9245 9.81247C33.5516 8.94746 34.4383 8.27167 35.5844 7.7851C36.7305 7.28772 38.0172 7.03903 39.4445 7.03903C41.607 7.03903 43.3208 7.58507 44.5859 8.67714C45.8618 9.75841 46.4997 11.283 46.4997 13.2509V20.8576C46.5106 22.5227 46.743 23.7824 47.1972 24.6366V24.9123H42.4612ZM38.5849 21.6523C39.2769 21.6523 39.9149 21.5009 40.4987 21.1982C41.0826 20.8846 41.5151 20.4683 41.7963 19.9493V16.9326H40.0446C37.6983 16.9326 36.4494 17.7435 36.298 19.3654L36.2818 19.6412C36.2818 20.225 36.4872 20.7062 36.8981 21.0846C37.309 21.4631 37.8713 21.6523 38.5849 21.6523Z" fill="#F5F9FC"/>
<path d="M56.4095 19.187L59.6695 7.36341H64.5677L58.6477 24.9123H54.1713L48.2514 7.36341H53.1495L56.4095 19.187Z" fill="#F5F9FC"/>
<path d="M74.4937 25.2367C71.9203 25.2367 69.8226 24.4474 68.2007 22.8687C66.5896 21.2901 65.7841 19.187 65.7841 16.5596V16.1054C65.7841 14.343 66.1247 12.7697 66.8059 11.3857C67.4871 9.99088 68.4494 8.92043 69.6929 8.17435C70.9471 7.41747 72.3744 7.03903 73.9747 7.03903C76.3751 7.03903 78.2619 7.79591 79.6351 9.30968C81.0191 10.8235 81.7111 12.9698 81.7111 15.7486V17.6624H70.5362C70.6876 18.8086 71.1417 19.7277 71.8986 20.4197C72.6663 21.1117 73.6341 21.4577 74.8018 21.4577C76.6075 21.4577 78.0186 20.8035 79.035 19.4952L81.3381 22.074C80.6352 23.0688 79.6837 23.8473 78.4835 24.4095C77.2833 24.961 75.9534 25.2367 74.4937 25.2367ZM73.9584 10.8343C73.0286 10.8343 72.2717 11.1478 71.6878 11.775C71.1147 12.4021 70.7471 13.2995 70.5849 14.4673H77.1049V14.0943C77.0833 13.0563 76.8022 12.2561 76.2615 11.6939C75.7209 11.1208 74.9532 10.8343 73.9584 10.8343Z" fill="#F5F9FC"/>
<path d="M94.2484 11.7587C93.6104 11.6722 93.0482 11.629 92.5616 11.629C90.7883 11.629 89.626 12.2291 89.0745 13.4293V24.9123H84.3872V7.36341H88.815L88.9448 9.45565C89.8855 7.84457 91.1884 7.03903 92.8535 7.03903C93.3725 7.03903 93.8591 7.10931 94.3132 7.24987L94.2484 11.7587Z" fill="#F5F9FC"/>
<path d="M101.466 24.9123H96.7623V0H101.466V24.9123Z" fill="#F5F9FC"/>
<path d="M111.895 18.2788L115.138 7.36341H120.166L113.111 27.6371L112.722 28.5616C111.673 30.8539 109.943 32 107.532 32C106.85 32 106.158 31.8973 105.456 31.6918V28.1399L106.169 28.1561C107.056 28.1561 107.715 28.021 108.148 27.7506C108.591 27.4803 108.937 27.0316 109.186 26.4045L109.737 24.961L103.59 7.36341H108.635L111.895 18.2788Z" fill="#F5F9FC"/>
</svg>
