<svg width="70" height="70" viewBox="0 0 70 70" fill="none" xmlns="http://www.w3.org/2000/svg">
<circle cx="35" cy="35" r="35" fill="#C4C4C4"/>
<g clip-path="url(#clip0)">
<path d="M50.8137 21.875C50.6988 21.875 50.5805 21.8967 50.4645 21.943L40.5006 25.625H40.5L30.4219 22.0672C30.0394 21.9401 29.639 21.8752 29.2359 21.875C28.8439 21.875 28.4525 21.9365 28.0752 22.059L19.1789 25.1533C18.831 25.2925 18.5327 25.5327 18.3226 25.843C18.1124 26.1533 18.0001 26.5194 18 26.8941V47.1863C18 47.7248 18.4412 48.125 18.9369 48.125C19.0518 48.125 19.1695 48.1033 19.2861 48.057L29.25 44.375L39.3281 47.9322C40.0893 48.1862 40.9118 48.1893 41.6748 47.941L50.5711 44.8467C50.9191 44.7076 51.2174 44.4674 51.4275 44.1571C51.6377 43.8468 51.75 43.4806 51.75 43.1059V22.8137C51.75 22.2752 51.3088 21.875 50.8137 21.875ZM31.125 25.298L38.625 27.9459V44.702L31.125 42.0541V25.298ZM20.8125 44.4951V27.5627L28.3125 24.9535V41.723L28.275 41.7365L20.8125 44.4951ZM48.9375 42.4367L41.4375 45.0459V28.277L41.475 28.2629L48.9375 25.5049V42.4367Z" fill="black"/>
</g>
<defs>
<clipPath id="clip0">
<rect width="33.75" height="30" fill="white" transform="translate(18 20)"/>
</clipPath>
</defs>
</svg>
